<svg id="visual" viewBox="0 0 900 600" width="900" height="600" xmlns="http://www.w3.org/2000/svg" xmlns:xlink="http://www.w3.org/1999/xlink" version="1.1"><rect x="0" y="0" width="900" height="600" fill="#000"></rect><defs><linearGradient id="grad1_0" x1="33.3%" y1="0%" x2="100%" y2="100%"><stop offset="20%" stop-color="#ac1f29" stop-opacity="1"></stop><stop offset="80%" stop-color="#ac1f29" stop-opacity="1"></stop></linearGradient></defs><defs><linearGradient id="grad1_1" x1="33.3%" y1="0%" x2="100%" y2="100%"><stop offset="20%" stop-color="#ac1f29" stop-opacity="1"></stop><stop offset="80%" stop-color="#730000" stop-opacity="1"></stop></linearGradient></defs><defs><linearGradient id="grad1_2" x1="33.3%" y1="0%" x2="100%" y2="100%"><stop offset="20%" stop-color="#000000" stop-opacity="1"></stop><stop offset="80%" stop-color="#730000" stop-opacity="1"></stop></linearGradient></defs><defs><linearGradient id="grad2_0" x1="0%" y1="0%" x2="66.7%" y2="100%"><stop offset="20%" stop-color="#ac1f29" stop-opacity="1"></stop><stop offset="80%" stop-color="#ac1f29" stop-opacity="1"></stop></linearGradient></defs><defs><linearGradient id="grad2_1" x1="0%" y1="0%" x2="66.7%" y2="100%"><stop offset="20%" stop-color="#730000" stop-opacity="1"></stop><stop offset="80%" stop-color="#ac1f29" stop-opacity="1"></stop></linearGradient></defs><defs><linearGradient id="grad2_2" x1="0%" y1="0%" x2="66.7%" y2="100%"><stop offset="20%" stop-color="#730000" stop-opacity="1"></stop><stop offset="80%" stop-color="#000000" stop-opacity="1"></stop></linearGradient></defs><g transform="translate(900, 0)"><path d="M0 432.7C-48.2 433.6 -96.4 434.6 -133.7 411.5C-171 388.4 -197.3 341.2 -221.6 305C-245.9 268.8 -268.1 243.5 -299.3 217.5C-330.6 191.4 -371 164.6 -394.7 128.2C-418.4 91.9 -425.5 45.9 -432.7 0L0 0Z" fill="#590000"></path><path d="M0 288.4C-32.1 289.1 -64.3 289.7 -89.1 274.3C-114 258.9 -131.5 227.5 -147.7 203.3C-163.9 179.2 -178.7 162.3 -199.6 145C-220.4 127.6 -247.3 109.7 -263.1 85.5C-278.9 61.2 -283.7 30.6 -288.4 0L0 0Z" fill="#8f0015"></path><path d="M0 144.2C-16.1 144.5 -32.1 144.9 -44.6 137.2C-57 129.5 -65.8 113.7 -73.9 101.7C-82 89.6 -89.4 81.2 -99.8 72.5C-110.2 63.8 -123.7 54.9 -131.6 42.7C-139.5 30.6 -141.8 15.3 -144.2 0L0 0Z" fill="#ac1f29"></path></g><g transform="translate(0, 600)"><path d="M0 -432.7C48 -430.5 95.9 -428.4 131.3 -404.2C166.7 -380 189.6 -333.8 221.6 -305C253.6 -276.2 294.6 -264.9 330.1 -239.8C365.5 -214.8 395.3 -176 411.5 -133.7C427.6 -91.4 430.2 -45.7 432.7 0L0 0Z" fill="#590000"></path><path d="M0 -288.4C32 -287 63.9 -285.6 87.6 -269.5C111.2 -253.3 126.4 -222.5 147.7 -203.3C169 -184.1 196.4 -176.6 220.1 -159.9C243.7 -143.2 263.6 -117.3 274.3 -89.1C285.1 -61 286.8 -30.5 288.4 0L0 0Z" fill="#8f0015"></path><path d="M0 -144.2C16 -143.5 32 -142.8 43.8 -134.7C55.6 -126.7 63.2 -111.3 73.9 -101.7C84.5 -92.1 98.2 -88.3 110 -79.9C121.8 -71.6 131.8 -58.7 137.2 -44.6C142.5 -30.5 143.4 -15.2 144.2 0L0 0Z" fill="#ac1f29"></path></g></svg>